Oxygen-Sans.ufo
<glyph name="numbersign" format="1">
  <advance width="1020"/>
  <unicode hex="0023"/>
  <outline>
    <contour>
      <point x="498" y="-20" type="line"/>
      <point x="599" y="-20" type="line"/>
      <point x="692" y="442" type="line"/>
      <point x="924" y="442" type="line"/>
      <point x="939" y="536" type="line"/>
      <point x="712" y="536" type="line"/>
      <point x="805" y="992" type="line"/>
      <point x="1020" y="992" type="line"/>
      <point x="1035" y="1083" type="line"/>
      <point x="823" y="1083" type="line"/>
      <point x="926" y="1559" type="line"/>
      <point x="826" y="1559" type="line"/>
      <point x="722" y="1083" type="line"/>
      <point x="418" y="1083" type="line"/>
      <point x="521" y="1559" type="line"/>
      <point x="416" y="1559" type="line"/>
      <point x="313" y="1083" type="line"/>
      <point x="110" y="1083" type="line"/>
      <point x="97" y="992" type="line"/>
      <point x="294" y="992" type="line"/>
      <point x="201" y="536" type="line"/>
      <point x="-2" y="536" type="line"/>
      <point x="-15" y="442" type="line"/>
      <point x="183" y="442" type="line"/>
      <point x="90" y="-20" type="line"/>
      <point x="193" y="-20" type="line"/>
      <point x="287" y="442" type="line"/>
      <point x="590" y="442" type="line"/>
    </contour>
    <contour>
      <point x="610" y="536" type="line"/>
      <point x="305" y="536" type="line"/>
      <point x="399" y="992" type="line"/>
      <point x="703" y="992" type="line"/>
    </contour>
  </outline>
</glyph>
<glyph name="dollar" format="1">
  <advance width="1157.0304227"/>
  <unicode hex="0024"/>
  <outline>
    <contour>
      <point x="518" y="-278" type="line"/>
      <point x="615" y="-278" type="line"/>
      <point x="653" y="61" type="line"/>
      <point x="518" y="61" type="line"/>
    </contour>
    <contour>
      <point x="661" y="1785" type="line"/>
      <point x="558" y="1785" type="line"/>
      <point x="520" y="1446" type="line"/>
      <point x="661" y="1446" type="line"/>
    </contour>
    <component base="S"/>
  </outline>
</glyph>
<glyph name="parenright" format="1">
  <advance width="652"/>
  <unicode hex="0029"/>
  <outline>
    <contour>
      <point x="361" y="680" type="curve"/>
      <point x="361" y="391"/>
      <point x="293" y="101"/>
      <point x="118" y="-196" type="curve"/>
      <point x="118" y="-230" type="line"/>
      <point x="254" y="-230" type="line"/>
      <point x="422" y="45"/>
      <point x="511" y="357"/>
      <point x="511" y="680" type="curve"/>
      <point x="511" y="1003"/>
      <point x="422" y="1315"/>
      <point x="254" y="1590" type="curve"/>
      <point x="118" y="1590" type="line"/>
      <point x="118" y="1556" type="line"/>
      <point x="293" y="1259"/>
      <point x="361" y="969"/>
    </contour>
  </outline>
</glyph>
<glyph name="hyphen" format="1">
  <advance width="775"/>
  <unicode hex="002D"/>
  <outline>
    <contour>
      <point x="148" y="535" type="line"/>
      <point x="639" y="535" type="line"/>
      <point x="639" y="690" type="line"/>
      <point x="148" y="690" type="line"/>
    </contour>
  </outline>
</glyph>
<glyph name="three" format="1">
  <advance width="1101"/>
  <unicode hex="0033"/>
  <outline>
    <contour>
      <point x="843.0" y="-20.0"/>
      <point x="984.0" y="171.0"/>
      <point x="985.0" y="377.0" type="curve" smooth="yes"/>
      <point x="986.0" y="602.0"/>
      <point x="859.0" y="760.0"/>
      <point x="627.0" y="779.0" type="curve"/>
      <point x="627.0" y="762.0" type="line"/>
      <point x="829.0" y="791.0"/>
      <point x="944.0" y="913.0"/>
      <point x="944.0" y="1088.0" type="curve"/>
      <point x="949.0" y="1319.0"/>
      <point x="803.0" y="1476.0"/>
      <point x="538.0" y="1476.0" type="curve"/>
      <point x="413.0" y="1476.0"/>
      <point x="199" y="1440"/>
      <point x="98" y="1226" type="curve"/>
      <point x="199" y="1150" type="line"/>
      <point x="219.0" y="1150.0" type="line"/>
      <point x="301" y="1290"/>
      <point x="404.0" y="1338.0"/>
      <point x="540.0" y="1334.0" type="curve"/>
      <point x="709.0" y="1334.0"/>
      <point x="790.0" y="1237.0"/>
      <point x="784.0" y="1086.0" type="curve"/>
      <point x="784.0" y="866.0"/>
      <point x="575" y="837"/>
      <point x="418" y="837" type="curve" smooth="yes"/>
      <point x="362" y="837" type="line"/>
      <point x="387" y="694" type="line"/>
      <point x="417" y="694" type="line" smooth="yes"/>
      <point x="681" y="694"/>
      <point x="822.0" y="623.0"/>
      <point x="823.0" y="389.0" type="curve" smooth="yes"/>
      <point x="824.0" y="206.0"/>
      <point x="703.0" y="123.0"/>
      <point x="541.0" y="123.0" type="curve" smooth="yes"/>
      <point x="448.0" y="123.0"/>
      <point x="319.0" y="153.0"/>
      <point x="237.0" y="289.0" type="curve"/>
      <point x="224.0" y="289.0" type="line"/>
      <point x="121.0" y="212.0" type="line"/>
      <point x="226.0" y="26.0"/>
      <point x="403.0" y="-20.0"/>
      <point x="541.0" y="-20.0" type="curve" smooth="yes"/>
    </contour>
  </outline>
</glyph>
<glyph name="nine" format="1">
  <advance width="1101"/>
  <unicode hex="0039"/>
  <outline>
    <contour>
      <point x="553" y="697" type="curve" smooth="yes"/>
      <point x="345" y="693"/>
      <point x="240" y="836"/>
      <point x="240" y="1018" type="curve" smooth="yes"/>
      <point x="240" y="1192"/>
      <point x="358" y="1344"/>
      <point x="561" y="1344" type="curve" smooth="yes"/>
      <point x="764" y="1344"/>
      <point x="876" y="1191"/>
      <point x="876" y="1019" type="curve" smooth="yes"/>
      <point x="876" y="775"/>
      <point x="683" y="700"/>
    </contour>
    <contour>
      <point x="257.0" y="0.0" type="line"/>
      <point x="437" y="0" type="line"/>
      <point x="798" y="460" type="line" smooth="yes"/>
      <point x="940" y="640"/>
      <point x="1034.0" y="790.0"/>
      <point x="1034.0" y="1008.0" type="curve" smooth="yes"/>
      <point x="1034.0" y="1252.0"/>
      <point x="862.0" y="1476.0"/>
      <point x="560.0" y="1476.0" type="curve" smooth="yes"/>
      <point x="273.0" y="1476.0"/>
      <point x="78.0" y="1274.0"/>
      <point x="78.0" y="1016.0" type="curve" smooth="yes"/>
      <point x="78.0" y="749.0"/>
      <point x="264" y="565"/>
      <point x="504" y="565" type="curve" smooth="yes"/>
      <point x="628" y="565"/>
      <point x="764" y="622"/>
      <point x="841" y="731" type="curve"/>
      <point x="829" y="745" type="line"/>
      <point x="628.0" y="481.0" type="line"/>
      <point x="257" y="21" type="line"/>
    </contour>
  </outline>
</glyph>
<glyph name="colon" format="1">
  <advance width="612"/>
  <unicode hex="003A"/>
  <outline>
    <contour>
      <point x="294" y="-10" type="curve" smooth="yes"/>
      <point x="376" y="-10"/>
      <point x="411" y="50"/>
      <point x="411" y="112" type="curve" smooth="yes"/>
      <point x="411" y="172"/>
      <point x="376" y="235"/>
      <point x="294" y="235" type="curve" smooth="yes"/>
      <point x="211" y="235"/>
      <point x="173" y="172"/>
      <point x="173" y="112" type="curve" smooth="yes"/>
      <point x="173" y="50"/>
      <point x="212" y="-10"/>
    </contour>
    <contour>
      <point x="294" y="838" type="curve" smooth="yes"/>
      <point x="376" y="838"/>
      <point x="411" y="898"/>
      <point x="411" y="960" type="curve" smooth="yes"/>
      <point x="411" y="1020"/>
      <point x="376" y="1083"/>
      <point x="294" y="1083" type="curve" smooth="yes"/>
      <point x="211" y="1083"/>
      <point x="173" y="1020"/>
      <point x="173" y="960" type="curve" smooth="yes"/>
      <point x="173" y="898"/>
      <point x="212" y="838"/>
    </contour>
  </outline>
</glyph>
<glyph name="B" format="1">
  <advance width="1278"/>
  <unicode hex="0042"/>
  <outline>
    <contour>
      <point x="160" y="7" type="line"/>
      <point x="884" y="-56"/>
      <point x="1179" y="48"/>
      <point x="1184" y="423" type="curve" smooth="yes"/>
      <point x="1187" y="623"/>
      <point x="1087" y="763"/>
      <point x="820" y="804" type="curve"/>
      <point x="820" y="772" type="line"/>
      <point x="1060" y="826"/>
      <point x="1131" y="954"/>
      <point x="1131" y="1099" type="curve" smooth="yes"/>
      <point x="1131" y="1266"/>
      <point x="1124" y="1561"/>
      <point x="160" y="1432" type="curve"/>
    </contour>
    <contour>
      <point x="296" y="135" type="curve"/>
      <point x="336" y="90" type="line"/>
      <point x="336" y="776" type="line"/>
      <point x="277" y="723" type="line"/>
      <point x="607" y="723" type="line" smooth="yes"/>
      <point x="889" y="723"/>
      <point x="1010" y="635"/>
      <point x="1010" y="424" type="curve" smooth="yes"/>
      <point x="1010" y="237"/>
      <point x="973" y="81"/>
    </contour>
    <contour>
      <point x="280" y="849" type="line"/>
      <point x="336" y="804" type="line"/>
      <point x="336" y="1372" type="line"/>
      <point x="276" y="1315" type="line"/>
      <point x="822" y="1379"/>
      <point x="974" y="1296"/>
      <point x="974" y="1089" type="curve" smooth="yes"/>
      <point x="974" y="886"/>
      <point x="808" y="849"/>
      <point x="618" y="849" type="curve" smooth="yes"/>
    </contour>
    <contour>
      <point x="677" y="0" type="move" name="bot"/>
    </contour>
    <contour>
      <point x="628" y="1456" type="move" name="top"/>
    </contour>
  </outline>
</glyph>
<glyph name="D" format="1">
  <advance width="1408"/>
  <unicode hex="0044"/>
  <outline>
    <contour>
      <point x="336" y="70" type="line"/>
      <point x="336" y="1372" type="line"/>
      <point x="278" y="1315" type="line"/>
      <point x="971" y="1412"/>
      <point x="1116" y="1173"/>
      <point x="1116" y="739" type="curve" smooth="yes"/>
      <point x="1116" y="326"/>
      <point x="965" y="40"/>
      <point x="279" y="129" type="curve"/>
    </contour>
    <contour>
      <point x="160" y="11" type="line"/>
      <point x="1016" y="-98"/>
      <point x="1292" y="230"/>
      <point x="1292" y="744" type="curve" smooth="yes"/>
      <point x="1292" y="1241"/>
      <point x="1102" y="1564"/>
      <point x="160" y="1432" type="curve"/>
    </contour>
    <contour>
      <point x="733" y="-1" type="move" name="bot"/>
    </contour>
    <contour>
      <point x="689" y="1456" type="move" name="top"/>
    </contour>
    <contour>
      <point x="249" y="769" type="move" name="mid"/>
    </contour>
  </outline>
</glyph>
<glyph name="E" format="1">
  <advance width="1186"/>
  <unicode hex="0045"/>
  <outline>
    <contour>
      <point x="160" y="0" type="line"/>
      <point x="1114" y="0" type="line"/>
      <point x="1126" y="137" type="line"/>
      <point x="277" y="137" type="line"/>
      <point x="336" y="67" type="line"/>
      <point x="336" y="741" type="line"/>
      <point x="277" y="686" type="line"/>
      <point x="1043" y="686" type="line"/>
      <point x="1043" y="822" type="line"/>
      <point x="277" y="822" type="line"/>
      <point x="336" y="775" type="line"/>
      <point x="336" y="1374" type="line"/>
      <point x="277" y="1321" type="line"/>
      <point x="1105" y="1321" type="line"/>
      <point x="1111" y="1456" type="line"/>
      <point x="160" y="1456" type="line"/>
    </contour>
    <contour>
      <point x="837" y="0" type="move" name="ogonek"/>
    </contour>
    <contour>
      <point x="667" y="0" type="move" name="bot"/>
    </contour>
    <contour>
      <point x="690" y="1456" type="move" name="top"/>
    </contour>
  </outline>
</glyph>
<glyph name="F" format="1">
  <advance width="1131"/>
  <unicode hex="0046"/>
  <outline>
    <contour>
      <point x="160" y="0" type="line"/>
      <point x="336" y="0" type="line"/>
      <point x="336" y="718" type="line"/>
      <point x="254" y="666" type="line"/>
      <point x="1018" y="666" type="line"/>
      <point x="1018" y="797" type="line"/>
      <point x="261" y="797" type="line"/>
      <point x="336" y="748" type="line"/>
      <point x="336" y="1385" type="line"/>
      <point x="261" y="1318" type="line"/>
      <point x="1113" y="1318" type="line"/>
      <point x="1123" y="1456" type="line"/>
      <point x="160" y="1456" type="line"/>
    </contour>
    <contour>
      <point x="693" y="1456" type="move" name="top"/>
    </contour>
  </outline>
</glyph>
<glyph name="G" format="1">
  <advance width="1376"/>
  <unicode hex="0047"/>
  <outline>
    <contour>
      <point x="780" y="-20" type="curve" smooth="yes"/>
      <point x="976" y="-20"/>
      <point x="1101" y="14"/>
      <point x="1248" y="72" type="curve"/>
      <point x="1248" y="764" type="line"/>
      <point x="797" y="764" type="line"/>
      <point x="788" y="646" type="line"/>
      <point x="1133" y="621" type="line"/>
      <point x="1085" y="676" type="line"/>
      <point x="1085" y="108" type="line"/>
      <point x="1145" y="183" type="line"/>
      <point x="1077" y="161"/>
      <point x="990" y="123"/>
      <point x="811" y="123" type="curve" smooth="yes"/>
      <point x="426" y="123"/>
      <point x="293" y="369"/>
      <point x="293" y="738" type="curve" smooth="yes"/>
      <point x="293" y="1091"/>
      <point x="470" y="1334"/>
      <point x="812" y="1334" type="curve" smooth="yes"/>
      <point x="995" y="1334"/>
      <point x="1092" y="1260"/>
      <point x="1156" y="1194" type="curve"/>
      <point x="1172" y="1194" type="line"/>
      <point x="1252" y="1298" type="line"/>
      <point x="1165" y="1400"/>
      <point x="1020" y="1476"/>
      <point x="809" y="1476" type="curve" smooth="yes"/>
      <point x="370" y="1476"/>
      <point x="116" y="1176"/>
      <point x="116" y="737" type="curve" smooth="yes"/>
      <point x="116" y="303"/>
      <point x="331" y="-20"/>
    </contour>
    <contour>
      <point x="819" y="1" type="move" name="bot"/>
    </contour>
    <contour>
      <point x="821" y="1456" type="move" name="top"/>
    </contour>
  </outline>
</glyph>
<glyph name="H" format="1">
  <advance width="1421"/>
  <unicode hex="0048"/>
  <outline>
    <contour>
      <point x="160" y="0" type="line"/>
      <point x="336" y="0" type="line"/>
      <point x="336" y="723" type="line"/>
      <point x="276" y="678" type="line"/>
      <point x="1136" y="678" type="line"/>
      <point x="1085" y="723" type="line"/>
      <point x="1085" y="0" type="line"/>
      <point x="1261" y="0" type="line"/>
      <point x="1261" y="1456" type="line"/>
      <point x="1085" y="1456" type="line"/>
      <point x="1085" y="780" type="line"/>
      <point x="1135" y="820" type="line"/>
      <point x="271" y="820" type="line"/>
      <point x="336" y="780" type="line"/>
      <point x="336" y="1456" type="line"/>
      <point x="160" y="1456" type="line"/>
    </contour>
    <contour>
      <point x="721" y="1456" type="move" name="top"/>
    </contour>
    <contour>
      <point x="718" y="1206" type="move" name="mid"/>
    </contour>
  </outline>
</glyph>
<glyph name="J" format="1">
  <advance width="734"/>
  <unicode hex="004A"/>
  <outline>
    <contour>
      <point x="527" y="-291"/>
      <point x="582" y="-251"/>
      <point x="582" y="5" type="curve" smooth="yes"/>
      <point x="582" y="5"/>
      <point x="406" y="5"/>
      <point x="406" y="5" type="curve" smooth="yes"/>
      <point x="406" y="-152"/>
      <point x="400" y="-174"/>
      <point x="297" y="-216" type="curve" smooth="yes"/>
      <point x="181" y="-264" type="line"/>
      <point x="231" y="-386" type="line"/>
      <point x="312" y="-360" type="line" smooth="yes"/>
    </contour>
    <contour>
      <point x="582" y="5" type="line"/>
      <point x="582" y="1456" type="line"/>
      <point x="406" y="1456" type="line"/>
      <point x="406" y="5" type="line"/>
    </contour>
    <contour>
      <point x="499" y="1456" type="move" name="top"/>
    </contour>
  </outline>
</glyph>
<glyph name="K" format="1">
  <advance width="1288"/>
  <unicode hex="004B"/>
  <outline>
    <contour>
      <point x="160" y="0" type="line"/>
      <point x="336" y="0" type="line"/>
      <point x="336" y="650" type="line"/>
      <point x="290" y="539" type="line"/>
      <point x="556" y="787" type="line"/>
      <point x="484" y="786" type="line"/>
      <point x="1086" y="0" type="line"/>
      <point x="1284" y="0" type="line"/>
      <point x="1284" y="20" type="line"/>
      <point x="601" y="896" type="line"/>
      <point x="601" y="800" type="line"/>
      <point x="1248" y="1434" type="line"/>
      <point x="1248" y="1456" type="line"/>
      <point x="1056" y="1456" type="line"/>
      <point x="284" y="696" type="line"/>
      <point x="336" y="695" type="line"/>
      <point x="336" y="1456" type="line"/>
      <point x="160" y="1456" type="line"/>
    </contour>
    <contour>
      <point x="637" y="0" type="move" name="bot"/>
    </contour>
    <contour>
      <point x="634" y="1456" type="move" name="top"/>
    </contour>
  </outline>
</glyph>
<glyph name="L" format="1">
  <advance width="1078"/>
  <unicode hex="004C"/>
  <outline>
    <contour>
      <point x="160" y="0" type="line"/>
      <point x="1042" y="0" type="line"/>
      <point x="1046" y="137" type="line"/>
      <point x="266" y="137" type="line"/>
      <point x="336" y="72" type="line"/>
      <point x="336" y="1456" type="line"/>
      <point x="160" y="1456" type="line"/>
    </contour>
    <contour>
      <point x="597" y="0" type="move" name="bot"/>
    </contour>
    <contour>
      <point x="711" y="850" type="move" name="mid"/>
    </contour>
    <contour>
      <point x="404" y="1456" type="move" name="top"/>
    </contour>
    <contour>
      <point x="250" y="795" type="move" name="mid2"/>
    </contour>
  </outline>
</glyph>
<glyph name="M" format="1">
  <advance width="1730"/>
  <unicode hex="004D"/>
  <outline>
    <contour>
      <point x="160" y="0" type="line"/>
      <point x="326" y="0" type="line"/>
      <point x="326" y="471" type="line"/>
      <point x="335" y="924" type="line"/>
      <point x="335" y="1314" type="line"/>
      <point x="305" y="1304" type="line"/>
      <point x="801" y="167" type="line"/>
      <point x="952" y="167" type="line"/>
      <point x="1457" y="1303" type="line"/>
      <point x="1421" y="1315" type="line"/>
      <point x="1421" y="928" type="line"/>
      <point x="1430" y="474" type="line"/>
      <point x="1430" y="0" type="line"/>
      <point x="1594" y="0" type="line"/>
      <point x="1594" y="472" type="line"/>
      <point x="1570" y="1456" type="line"/>
      <point x="1360" y="1456" type="line"/>
      <point x="856" y="318" type="line"/>
      <point x="900" y="318" type="line"/>
      <point x="400" y="1456" type="line"/>
      <point x="184" y="1456" type="line"/>
      <point x="160" y="472" type="line"/>
    </contour>
    <contour>
      <point x="892" y="1456" type="move" name="top"/>
    </contour>
  </outline>
</glyph>
<glyph name="N" format="1">
  <advance width="1397"/>
  <unicode hex="004E"/>
  <outline>
    <contour>
      <point x="160" y="0" type="line"/>
      <point x="319" y="0" type="line"/>
      <point x="319" y="761" type="line"/>
      <point x="300" y="1302" type="line"/>
      <point x="262" y="1288" type="line"/>
      <point x="1076" y="0" type="line"/>
      <point x="1261" y="0" type="line"/>
      <point x="1261" y="1456" type="line"/>
      <point x="1103" y="1456" type="line"/>
      <point x="1103" y="644" type="line"/>
      <point x="1115" y="155" type="line"/>
      <point x="1146" y="170" type="line"/>
      <point x="338" y="1456" type="line"/>
      <point x="160" y="1456" type="line"/>
    </contour>
    <contour>
      <point x="745" y="1456" type="move" name="top"/>
    </contour>
  </outline>
</glyph>
<glyph name="O" format="1">
  <advance width="1528"/>
  <unicode hex="004F"/>
  <outline>
    <contour>
      <point x="765" y="122" type="curve" smooth="yes"/>
      <point x="415" y="122"/>
      <point x="293" y="365"/>
      <point x="293" y="720" type="curve" smooth="yes"/>
      <point x="293" y="1091"/>
      <point x="427" y="1334"/>
      <point x="767" y="1334" type="curve" smooth="yes"/>
      <point x="1108" y="1334"/>
      <point x="1236" y="1089"/>
      <point x="1236" y="720" type="curve" smooth="yes"/>
      <point x="1236" y="365"/>
      <point x="1115" y="122"/>
    </contour>
    <contour>
      <point x="767" y="-20" type="curve" smooth="yes"/>
      <point x="1209" y="-20"/>
      <point x="1412" y="275"/>
      <point x="1412" y="718" type="curve" smooth="yes"/>
      <point x="1412" y="1181"/>
      <point x="1197" y="1476"/>
      <point x="768" y="1476" type="curve" smooth="yes"/>
      <point x="330" y="1476"/>
      <point x="116" y="1184"/>
      <point x="116" y="721" type="curve" smooth="yes"/>
      <point x="116" y="269"/>
      <point x="320" y="-20"/>
    </contour>
    <contour>
      <point x="767" y="1" type="move" name="bot"/>
    </contour>
    <contour>
      <point x="768" y="1456" type="move" name="top"/>
    </contour>
  </outline>
</glyph>
<glyph name="P" format="1">
  <advance width="1197"/>
  <unicode hex="0050"/>
  <outline>
    <contour>
      <point x="160" y="0" type="line"/>
      <point x="336" y="0" type="line"/>
      <point x="336" y="698" type="line"/>
      <point x="276" y="656" type="line"/>
      <point x="1005" y="580"/>
      <point x="1149" y="783"/>
      <point x="1149" y="1068" type="curve" smooth="yes"/>
      <point x="1149" y="1403"/>
      <point x="915" y="1526"/>
      <point x="160" y="1432" type="curve"/>
    </contour>
    <contour>
      <point x="276" y="1315" type="line"/>
      <point x="874" y="1383"/>
      <point x="989" y="1284"/>
      <point x="989" y="1066" type="curve" smooth="yes"/>
      <point x="989" y="838"/>
      <point x="892" y="720"/>
      <point x="276" y="784" type="curve"/>
      <point x="336" y="740" type="line"/>
      <point x="336" y="1372" type="line"/>
    </contour>
    <contour>
      <point x="642" y="1456" type="move" name="top"/>
    </contour>
  </outline>
</glyph>
<glyph name="Q" format="1">
  <advance width="1528"/>
  <unicode hex="0051"/>
  <outline>
    <contour>
      <point x="1126" y="-431" type="line"/>
      <point x="1239" y="-352" type="line"/>
      <point x="989" y="10" type="line"/>
      <point x="1278" y="95"/>
      <point x="1412" y="358"/>
      <point x="1412" y="718" type="curve" smooth="yes"/>
      <point x="1412" y="1181"/>
      <point x="1197" y="1476"/>
      <point x="768" y="1476" type="curve" smooth="yes"/>
      <point x="330" y="1476"/>
      <point x="116" y="1184"/>
      <point x="116" y="721" type="curve" smooth="yes"/>
      <point x="116" y="269"/>
      <point x="320" y="-20"/>
      <point x="767" y="-20" type="curve" smooth="yes"/>
      <point x="792" y="-20"/>
      <point x="816" y="-19"/>
      <point x="840" y="-17" type="curve"/>
    </contour>
    <contour>
      <point x="765" y="122" type="curve" smooth="yes"/>
      <point x="415" y="122"/>
      <point x="293" y="365"/>
      <point x="293" y="720" type="curve" smooth="yes"/>
      <point x="293" y="1091"/>
      <point x="427" y="1334"/>
      <point x="767" y="1334" type="curve" smooth="yes"/>
      <point x="1108" y="1334"/>
      <point x="1236" y="1089"/>
      <point x="1236" y="720" type="curve" smooth="yes"/>
      <point x="1236" y="365"/>
      <point x="1115" y="122"/>
    </contour>
  </outline>
</glyph>
<glyph name="S" format="1">
  <advance width="1157.0304227"/>
  <unicode hex="0053"/>
  <outline>
    <contour>
      <point x="1067" y="374" type="curve" smooth="yes"/>
      <point x="1070" y="676"/>
      <point x="887" y="723"/>
      <point x="574" y="849" type="curve" smooth="yes"/>
      <point x="325" y="949"/>
      <point x="262" y="973"/>
      <point x="267" y="1123" type="curve" smooth="yes"/>
      <point x="273" y="1291"/>
      <point x="428" y="1338"/>
      <point x="602" y="1334" type="curve" smooth="yes"/>
      <point x="743" y="1331"/>
      <point x="870" y="1277"/>
      <point x="945" y="1195" type="curve"/>
      <point x="959" y="1195" type="line"/>
      <point x="1048" y="1297" type="line"/>
      <point x="940" y="1416"/>
      <point x="769" y="1478"/>
      <point x="582" y="1476" type="curve" smooth="yes"/>
      <point x="342" y="1473"/>
      <point x="109" y="1403"/>
      <point x="91" y="1125" type="curve" smooth="yes"/>
      <point x="73" y="860"/>
      <point x="230" y="816"/>
      <point x="509" y="700" type="curve" smooth="yes"/>
      <point x="821" y="571"/>
      <point x="908" y="547"/>
      <point x="902" y="369" type="curve" smooth="yes"/>
      <point x="896" y="189"/>
      <point x="753" y="123"/>
      <point x="568" y="123" type="curve" smooth="yes"/>
      <point x="432" y="123"/>
      <point x="290" y="166"/>
      <point x="192" y="261" type="curve"/>
      <point x="180" y="261" type="line"/>
      <point x="86" y="164" type="line"/>
      <point x="168" y="66"/>
      <point x="342" y="-20"/>
      <point x="568" y="-20" type="curve" smooth="yes"/>
      <point x="803" y="-20"/>
      <point x="1064" y="72"/>
    </contour>
    <contour>
      <point x="595" y="0" type="move" name="bot"/>
    </contour>
    <contour>
      <point x="590" y="1476" type="move" name="top"/>
    </contour>
  </outline>
</glyph>
<glyph name="X" format="1">
  <advance width="1193"/>
  <unicode hex="0058"/>
  <outline>
    <contour>
      <point x="14" y="0" type="line"/>
      <point x="193" y="0" type="line"/>
      <point x="595" y="604" type="line"/>
      <point x="681" y="710" type="line"/>
      <point x="1172" y="1456" type="line"/>
      <point x="984" y="1456" type="line"/>
      <point x="593" y="853" type="line"/>
      <point x="503" y="750" type="line"/>
    </contour>
    <contour>
      <point x="980" y="0" type="line"/>
      <point x="1179" y="0" type="line"/>
      <point x="210" y="1456" type="line"/>
      <point x="15" y="1456" type="line"/>
    </contour>
  </outline>
</glyph>
<glyph name="Z" format="1">
  <advance width="1115"/>
  <unicode hex="005A"/>
  <outline>
    <contour>
      <point x="42" y="0" type="line"/>
      <point x="1070" y="0" type="line"/>
      <point x="1078" y="137" type="line"/>
      <point x="183" y="137" type="line"/>
      <point x="207" y="86" type="line"/>
      <point x="1071" y="1332" type="line"/>
      <point x="1064" y="1456" type="line"/>
      <point x="75" y="1456" type="line"/>
      <point x="75" y="1321" type="line"/>
      <point x="942" y="1321" type="line"/>
      <point x="913" y="1378" type="line"/>
      <point x="42" y="127" type="line"/>
    </contour>
    <contour>
      <point x="606" y="0" type="move" name="bot"/>
    </contour>
    <contour>
      <point x="620" y="1456" type="move" name="top"/>
    </contour>
  </outline>
</glyph>
<glyph name="a" format="1">
  <advance width="1069"/>
  <unicode hex="0061"/>
  <outline>
    <contour>
      <point x="775" y="561" type="line"/>
      <point x="819" y="588" type="line"/>
      <point x="733" y="601"/>
      <point x="595" y="607"/>
      <point x="534" y="607" type="curve" smooth="yes"/>
      <point x="215" y="607"/>
      <point x="95" y="482"/>
      <point x="95" y="293" type="curve" smooth="yes"/>
      <point x="95" y="92"/>
      <point x="225" y="-11"/>
      <point x="416" y="-20" type="curve" smooth="yes"/>
      <point x="612" y="-29"/>
      <point x="745" y="45"/>
      <point x="844" y="216" type="curve"/>
      <point x="782" y="205" type="line"/>
      <point x="798" y="0" type="line"/>
      <point x="939" y="0" type="line"/>
      <point x="939" y="712" type="line" smooth="yes"/>
      <point x="939" y="1001"/>
      <point x="772" y="1106"/>
      <point x="531" y="1106" type="curve" smooth="yes"/>
      <point x="339" y="1106"/>
      <point x="213" y="1040"/>
      <point x="124" y="911" type="curve"/>
      <point x="206" y="821" type="line"/>
      <point x="216" y="821" type="line"/>
      <point x="310" y="944"/>
      <point x="398" y="980"/>
      <point x="532" y="980" type="curve" smooth="yes"/>
      <point x="695" y="980"/>
      <point x="775" y="902"/>
      <point x="775" y="722" type="curve" smooth="yes"/>
    </contour>
    <contour>
      <point x="799" y="287" type="line"/>
      <point x="724" y="165"/>
      <point x="589" y="88"/>
      <point x="424" y="104" type="curve" smooth="yes"/>
      <point x="331" y="113"/>
      <point x="253" y="167"/>
      <point x="253" y="292" type="curve" smooth="yes"/>
      <point x="253" y="415"/>
      <point x="320" y="494"/>
      <point x="550" y="494" type="curve" smooth="yes"/>
      <point x="605" y="494"/>
      <point x="743" y="486"/>
      <point x="820" y="473" type="curve"/>
      <point x="775" y="527" type="line"/>
      <point x="775" y="213" type="line"/>
    </contour>
    <contour>
      <point x="541" y="1083" type="move" name="top"/>
    </contour>
    <contour>
      <point x="878" y="1" type="move" name="ogonek"/>
    </contour>
    <contour>
      <point x="464" y="1" type="move" name="bot"/>
    </contour>
  </outline>
</glyph>
<glyph name="b" format="1">
  <advance width="1180"/>
  <unicode hex="0062"/>
  <outline>
    <contour>
      <point x="606" y="106" type="curve" smooth="yes"/>
      <point x="486" y="106"/>
      <point x="378" y="150"/>
      <point x="309" y="246" type="curve"/>
      <point x="309" y="558" type="line" smooth="yes"/>
      <point x="309" y="808"/>
      <point x="399" y="980"/>
      <point x="626" y="980" type="curve" smooth="yes"/>
      <point x="840" y="980"/>
      <point x="904" y="791"/>
      <point x="904" y="541" type="curve" smooth="yes"/>
      <point x="904" y="277"/>
      <point x="816" y="106"/>
    </contour>
    <contour>
      <point x="610" y="-20" type="curve" smooth="yes"/>
      <point x="905" y="-20"/>
      <point x="1073" y="204"/>
      <point x="1073" y="542" type="curve" smooth="yes"/>
      <point x="1073" y="880"/>
      <point x="934" y="1118"/>
      <point x="624" y="1106" type="curve" smooth="yes"/>
      <point x="512" y="1102"/>
      <point x="349" y="1051"/>
      <point x="287" y="805" type="curve"/>
      <point x="308" y="803" type="line"/>
      <point x="316" y="1105" type="line"/>
      <point x="316" y="1560" type="line"/>
      <point x="152" y="1548" type="line"/>
      <point x="152" y="0" type="line"/>
      <point x="283" y="0" type="line"/>
      <point x="303" y="200" type="line"/>
      <point x="244" y="193" type="line"/>
      <point x="296" y="75"/>
      <point x="425" y="-20"/>
    </contour>
  </outline>
</glyph>
<glyph name="d" format="1">
  <advance width="1188"/>
  <unicode hex="0064"/>
  <outline>
    <contour>
      <point x="586" y="980" type="curve" smooth="yes"/>
      <point x="706" y="980"/>
      <point x="803" y="936"/>
      <point x="872" y="840" type="curve"/>
      <point x="872" y="182" type="line"/>
      <point x="896" y="255" type="line"/>
      <point x="831" y="152"/>
      <point x="720" y="106"/>
      <point x="588" y="106" type="curve" smooth="yes"/>
      <point x="374" y="106"/>
      <point x="277" y="275"/>
      <point x="277" y="548" type="curve" smooth="yes"/>
      <point x="277" y="812"/>
      <point x="376" y="980"/>
    </contour>
    <contour>
      <point x="941" y="196" type="curve"/>
      <point x="879" y="173" type="line"/>
      <point x="895" y="0" type="line"/>
      <point x="1036" y="0" type="line"/>
      <point x="1036" y="1559" type="line"/>
      <point x="865" y="1547" type="line"/>
      <point x="865" y="1154" type="line"/>
      <point x="873" y="876" type="line"/>
      <point x="936" y="884" type="line"/>
      <point x="884" y="1002"/>
      <point x="766" y="1106"/>
      <point x="581" y="1103" type="curve" smooth="yes"/>
      <point x="286" y="1106"/>
      <point x="107" y="886"/>
      <point x="107" y="545" type="curve"/>
      <point x="107" y="207"/>
      <point x="273" y="-23"/>
      <point x="583" y="-20" type="curve" smooth="yes"/>
      <point x="707" y="-19"/>
      <point x="876" y="46"/>
    </contour>
    <contour>
      <point x="947" y="1334" type="move" name="mid"/>
    </contour>
  </outline>
</glyph>
<glyph name="e" format="1">
  <advance width="1118.35862431"/>
  <unicode hex="0065"/>
  <outline>
    <contour>
      <point x="872" y="577" type="curve"/>
      <point x="936" y="627" type="line"/>
      <point x="219" y="627" type="line"/>
      <point x="276" y="585" type="line"/>
      <point x="283" y="827"/>
      <point x="416" y="983"/>
      <point x="611" y="980" type="curve" smooth="yes"/>
      <point x="800" y="977"/>
      <point x="882" y="829"/>
    </contour>
    <contour>
      <point x="619" y="-20" type="curve" smooth="yes"/>
      <point x="768" y="-20"/>
      <point x="893" y="24"/>
      <point x="983" y="84" type="curve"/>
      <point x="944" y="197" type="line"/>
      <point x="932" y="197" type="line"/>
      <point x="842" y="146"/>
      <point x="765" y="106"/>
      <point x="640" y="106" type="curve" smooth="yes"/>
      <point x="430" y="106"/>
      <point x="275" y="241"/>
      <point x="274" y="567" type="curve"/>
      <point x="223" y="516" type="line"/>
      <point x="1006" y="516" type="line"/>
      <point x="1006" y="516"/>
      <point x="1013" y="576"/>
      <point x="1014" y="602" type="curve" smooth="yes"/>
      <point x="1023" y="914"/>
      <point x="862" y="1106"/>
      <point x="599" y="1106" type="curve" smooth="yes"/>
      <point x="331" y="1106"/>
      <point x="107" y="899"/>
      <point x="107" y="538" type="curve" smooth="yes"/>
      <point x="107" y="190"/>
      <point x="332" y="-20"/>
    </contour>
    <contour>
      <point x="898" y="54" type="move" name="ogonek"/>
    </contour>
    <contour>
      <point x="611" y="1" type="move" name="bot"/>
    </contour>
    <contour>
      <point x="598" y="1083" type="move" name="top"/>
    </contour>
  </outline>
</glyph>
<glyph name="h" format="1">
  <advance width="1177"/>
  <unicode hex="0068"/>
  <outline>
    <contour>
      <point x="152" y="0" type="line"/>
      <point x="315" y="0" type="line"/>
      <point x="315" y="593" type="line" smooth="yes"/>
      <point x="315" y="782"/>
      <point x="391" y="980"/>
      <point x="645" y="980" type="curve" smooth="yes"/>
      <point x="807" y="980"/>
      <point x="867" y="873"/>
      <point x="867" y="664" type="curve" smooth="yes"/>
      <point x="867" y="0" type="line"/>
      <point x="1033" y="0" type="line"/>
      <point x="1033" y="670" type="line" smooth="yes"/>
      <point x="1033" y="948"/>
      <point x="904" y="1106"/>
      <point x="672" y="1106" type="curve" smooth="yes"/>
      <point x="510" y="1106"/>
      <point x="359" y="1046"/>
      <point x="288" y="824" type="curve"/>
      <point x="308" y="815" type="line"/>
      <point x="316" y="1146" type="line"/>
      <point x="316" y="1560" type="line"/>
      <point x="152" y="1547" type="line"/>
    </contour>
    <contour>
      <point x="661" y="1384" type="move" name="top"/>
    </contour>
    <contour>
      <point x="234" y="1284" type="move" name="mid"/>
    </contour>
  </outline>
</glyph>
<glyph name="i" format="1">
  <advance width="507"/>
  <unicode hex="0069"/>
  <outline>
    <contour>
      <point x="256" y="1496" type="curve" smooth="yes"/>
      <point x="324" y="1496"/>
      <point x="351" y="1458"/>
      <point x="351" y="1392" type="curve" smooth="yes"/>
      <point x="351" y="1324"/>
      <point x="324" y="1285"/>
      <point x="256" y="1285" type="curve" smooth="yes"/>
      <point x="186" y="1285"/>
      <point x="160" y="1324"/>
      <point x="160" y="1392" type="curve" smooth="yes"/>
      <point x="160" y="1458"/>
      <point x="186" y="1496"/>
    </contour>
    <contour>
      <point x="177" y="0" type="line"/>
      <point x="341" y="0" type="line"/>
      <point x="341" y="1082" type="line"/>
      <point x="177" y="1082" type="line"/>
    </contour>
    <contour>
      <point x="259" y="0" type="move" name="bot"/>
    </contour>
  </outline>
</glyph>
<glyph name="k" format="1">
  <advance width="1029"/>
  <unicode hex="006B"/>
  <outline>
    <contour>
      <point x="152" y="0" type="line"/>
      <point x="316" y="0" type="line"/>
      <point x="316" y="438" type="line"/>
      <point x="287" y="372" type="line"/>
      <point x="471" y="529" type="line"/>
      <point x="419" y="538" type="line"/>
      <point x="865" y="0" type="line"/>
      <point x="1044" y="0" type="line"/>
      <point x="1044" y="24" type="line"/>
      <point x="532" y="621" type="line"/>
      <point x="528" y="556" type="line"/>
      <point x="1010" y="1058" type="line"/>
      <point x="1010" y="1082" type="line"/>
      <point x="821" y="1082" type="line"/>
      <point x="275" y="499" type="line"/>
      <point x="309" y="486" type="line"/>
      <point x="316" y="757" type="line"/>
      <point x="316" y="1560" type="line"/>
      <point x="152" y="1547" type="line"/>
    </contour>
    <contour>
      <point x="571" y="0" type="move" name="bot"/>
    </contour>
  </outline>
</glyph>
<glyph name="l" format="1">
  <advance width="560"/>
  <unicode hex="006C"/>
  <outline>
    <contour>
      <point x="442" y="-8" type="curve" smooth="yes"/>
      <point x="510" y="-8" type="line"/>
      <point x="524" y="114" type="line"/>
      <point x="471" y="118" type="line" smooth="yes"/>
      <point x="346" y="127"/>
      <point x="326" y="138"/>
      <point x="326" y="310" type="curve" smooth="yes"/>
      <point x="326" y="1560" type="line"/>
      <point x="162" y="1548" type="line"/>
      <point x="162" y="305" type="line" smooth="yes"/>
      <point x="162" y="39"/>
      <point x="261" y="-8"/>
    </contour>
    <contour>
      <point x="327" y="0" type="move" name="bot"/>
    </contour>
    <contour>
      <point x="621" y="1084" type="move" name="mid"/>
    </contour>
    <contour>
      <point x="335" y="1497" type="move" name="top"/>
    </contour>
    <contour>
      <point x="241" y="919" type="move" name="mid2"/>
    </contour>
  </outline>
</glyph>
<glyph name="m" format="1">
  <advance width="1800"/>
  <unicode hex="006D"/>
  <outline>
    <contour>
      <point x="152" y="0" type="line"/>
      <point x="316" y="0" type="line"/>
      <point x="316" y="639" type="line"/>
      <point x="342" y="830"/>
      <point x="441" y="980"/>
      <point x="611" y="980" type="curve" smooth="yes"/>
      <point x="763" y="980"/>
      <point x="822" y="864"/>
      <point x="822" y="609" type="curve" smooth="yes"/>
      <point x="822" y="0" type="line"/>
      <point x="986" y="0" type="line"/>
      <point x="986" y="593" type="line" smooth="yes"/>
      <point x="986" y="849"/>
      <point x="1153" y="980"/>
      <point x="1287" y="980" type="curve" smooth="yes"/>
      <point x="1466" y="980"/>
      <point x="1492" y="801"/>
      <point x="1492" y="646" type="curve" smooth="yes"/>
      <point x="1492" y="0" type="line"/>
      <point x="1656" y="0" type="line"/>
      <point x="1656" y="699" type="line" smooth="yes"/>
      <point x="1656" y="965"/>
      <point x="1533" y="1106"/>
      <point x="1313" y="1106" type="curve" smooth="yes"/>
      <point x="1150" y="1106"/>
      <point x="1007" y="1018"/>
      <point x="938" y="802" type="curve"/>
      <point x="961" y="808" type="line"/>
      <point x="931" y="986"/>
      <point x="820" y="1106"/>
      <point x="638" y="1106" type="curve" smooth="yes"/>
      <point x="492" y="1106"/>
      <point x="360" y="1030"/>
      <point x="295" y="833" type="curve"/>
      <point x="310" y="826" type="line"/>
      <point x="288" y="1082" type="line"/>
      <point x="152" y="1082" type="line"/>
    </contour>
    <contour>
      <point x="932" y="1082" type="move" name="top"/>
    </contour>
  </outline>
</glyph>
<glyph name="o" format="1">
  <advance width="1182"/>
  <unicode hex="006F"/>
  <outline>
    <contour>
      <point x="591" y="1106" type="curve"/>
      <point x="275" y="1106"/>
      <point x="107" y="886"/>
      <point x="107" y="542" type="curve" smooth="yes"/>
      <point x="107" y="206"/>
      <point x="279" y="-20"/>
      <point x="591" y="-20" type="curve"/>
      <point x="903" y="-20"/>
      <point x="1075" y="206"/>
      <point x="1075" y="542" type="curve" smooth="yes"/>
      <point x="1075" y="886"/>
      <point x="907" y="1106"/>
    </contour>
    <contour>
      <point x="591" y="106" type="curve"/>
      <point x="370" y="106"/>
      <point x="277" y="294"/>
      <point x="277" y="541" type="curve" smooth="yes"/>
      <point x="277" y="794"/>
      <point x="371" y="980"/>
      <point x="591" y="980" type="curve"/>
      <point x="811" y="980"/>
      <point x="905" y="794"/>
      <point x="905" y="541" type="curve" smooth="yes"/>
      <point x="905" y="294"/>
      <point x="812" y="106"/>
    </contour>
    <contour>
      <point x="591" y="1" type="move" name="bot"/>
    </contour>
    <contour>
      <point x="591" y="1082" type="move" name="top"/>
    </contour>
  </outline>
</glyph>
<glyph name="p" format="1">
  <advance width="1181"/>
  <unicode hex="0070"/>
  <outline>
    <contour>
      <point x="152" y="-456" type="line"/>
      <point x="316" y="-456" type="line"/>
      <point x="316" y="-68" type="line"/>
      <point x="308" y="206" type="line"/>
      <point x="239" y="198" type="line"/>
      <point x="292" y="62"/>
      <point x="423" y="-20"/>
      <point x="614" y="-20" type="curve" smooth="yes"/>
      <point x="897" y="-20"/>
      <point x="1074" y="210"/>
      <point x="1074" y="539" type="curve" smooth="yes"/>
      <point x="1074" y="878"/>
      <point x="938" y="1106"/>
      <point x="645" y="1106" type="curve" smooth="yes"/>
      <point x="474" y="1106"/>
      <point x="341" y="1016"/>
      <point x="294" y="816" type="curve"/>
      <point x="309" y="811" type="line"/>
      <point x="288" y="1082" type="line"/>
      <point x="152" y="1082" type="line"/>
    </contour>
    <contour>
      <point x="606" y="106" type="curve" smooth="yes"/>
      <point x="486" y="106"/>
      <point x="378" y="150"/>
      <point x="309" y="246" type="curve"/>
      <point x="309" y="558" type="line" smooth="yes"/>
      <point x="309" y="808"/>
      <point x="399" y="980"/>
      <point x="626" y="980" type="curve" smooth="yes"/>
      <point x="840" y="980"/>
      <point x="904" y="791"/>
      <point x="904" y="541" type="curve" smooth="yes"/>
      <point x="904" y="277"/>
      <point x="816" y="106"/>
    </contour>
    <contour>
      <point x="650" y="1082" type="move" name="top"/>
    </contour>
  </outline>
</glyph>
<glyph name="q" format="1">
  <advance width="1180"/>
  <unicode hex="0071"/>
  <outline>
    <contour>
      <point x="585" y="980" type="curve" smooth="yes"/>
      <point x="705" y="980"/>
      <point x="802" y="936"/>
      <point x="871" y="840" type="curve"/>
      <point x="871" y="228" type="line"/>
      <point x="812" y="147"/>
      <point x="706" y="106"/>
      <point x="587" y="106" type="curve" smooth="yes"/>
      <point x="373" y="106"/>
      <point x="276" y="272"/>
      <point x="276" y="545" type="curve" smooth="yes"/>
      <point x="276" y="809"/>
      <point x="375" y="980"/>
    </contour>
    <contour>
      <point x="581" y="1106" type="curve" smooth="yes"/>
      <point x="286" y="1106"/>
      <point x="107" y="882"/>
      <point x="107" y="544" type="curve" smooth="yes"/>
      <point x="107" y="206"/>
      <point x="273" y="-22"/>
      <point x="583" y="-20" type="curve" smooth="yes"/>
      <point x="695" y="-19"/>
      <point x="867" y="17"/>
      <point x="941" y="198" type="curve"/>
      <point x="870" y="203" type="line"/>
      <point x="864" y="-19" type="line"/>
      <point x="864" y="-456" type="line"/>
      <point x="1028" y="-456" type="line"/>
      <point x="1028" y="1082" type="line"/>
      <point x="892" y="1082" type="line"/>
      <point x="877" y="886" type="line"/>
      <point x="936" y="885" type="line"/>
      <point x="884" y="1003"/>
      <point x="766" y="1106"/>
    </contour>
  </outline>
</glyph>
<glyph name="r" format="1">
  <advance width="708"/>
  <unicode hex="0072"/>
  <outline>
    <contour>
      <point x="152" y="0" type="line"/>
      <point x="316" y="0" type="line"/>
      <point x="316" y="614" type="line" smooth="yes"/>
      <point x="316" y="803"/>
      <point x="415" y="959"/>
      <point x="640" y="959" type="curve" smooth="yes"/>
      <point x="678" y="959" type="line"/>
      <point x="691" y="1091" type="line"/>
      <point x="668" y="1095"/>
      <point x="647" y="1096"/>
      <point x="617" y="1096" type="curve" smooth="yes"/>
      <point x="479" y="1096"/>
      <point x="356" y="1024"/>
      <point x="281" y="799" type="curve"/>
      <point x="306" y="788" type="line"/>
      <point x="283" y="1082" type="line"/>
      <point x="152" y="1082" type="line"/>
    </contour>
    <contour>
      <point x="265" y="0" type="move" name="bot"/>
    </contour>
    <contour>
      <point x="445" y="1082" type="move" name="top"/>
    </contour>
  </outline>
</glyph>
<glyph name="x" format="1">
  <advance width="1018"/>
  <unicode hex="0078"/>
  <outline>
    <contour>
      <point x="791" y="0" type="line"/>
      <point x="976" y="0" type="line"/>
      <point x="249" y="1082" type="line"/>
      <point x="64" y="1082" type="line"/>
    </contour>
    <contour>
      <point x="592" y="531" type="line"/>
      <point x="973" y="1082" type="line"/>
      <point x="805" y="1082" type="line"/>
      <point x="512" y="646" type="line"/>
      <point x="428" y="557" type="line"/>
      <point x="42" y="0" type="line"/>
      <point x="209" y="0" type="line"/>
      <point x="503" y="436" type="line"/>
    </contour>
  </outline>
</glyph>
<glyph name="copyright" format="1">
  <advance width="1591"/>
  <unicode hex="00A9"/>
  <outline>
    <contour>
      <point x="697" y="-20" type="curve" smooth="yes"/>
      <point x="1079" y="-20"/>
      <point x="1463" y="236"/>
      <point x="1463" y="727" type="curve" smooth="yes"/>
      <point x="1463" y="1220"/>
      <point x="1078" y="1476"/>
      <point x="697" y="1476" type="curve" smooth="yes"/>
      <point x="319" y="1476"/>
      <point x="-55" y="1220"/>
      <point x="-55" y="727" type="curve" smooth="yes"/>
      <point x="-55" y="236"/>
      <point x="319" y="-20"/>
    </contour>
    <contour>
      <point x="697" y="64" type="curve" smooth="yes"/>
      <point x="363" y="64"/>
      <point x="42" y="295"/>
      <point x="42" y="727" type="curve" smooth="yes"/>
      <point x="42" y="1160"/>
      <point x="363" y="1389"/>
      <point x="697" y="1389" type="curve" smooth="yes"/>
      <point x="1033" y="1389"/>
      <point x="1357" y="1160"/>
      <point x="1357" y="727" type="curve" smooth="yes"/>
      <point x="1357" y="296"/>
      <point x="1033" y="64"/>
    </contour>
    <contour>
      <point x="717" y="234" type="curve" smooth="yes"/>
      <point x="817" y="234"/>
      <point x="914" y="261"/>
      <point x="1000" y="316" type="curve"/>
      <point x="966" y="400" type="line"/>
      <point x="880" y="347"/>
      <point x="801" y="329"/>
      <point x="721" y="329" type="curve" smooth="yes"/>
      <point x="520" y="329"/>
      <point x="361" y="483"/>
      <point x="361" y="729" type="curve" smooth="yes"/>
      <point x="361" y="958"/>
      <point x="519" y="1119"/>
      <point x="713" y="1119" type="curve" smooth="yes"/>
      <point x="786" y="1119"/>
      <point x="880" y="1094"/>
      <point x="954" y="1041" type="curve"/>
      <point x="997" y="1127" type="line"/>
      <point x="909" y="1186"/>
      <point x="811" y="1215"/>
      <point x="709" y="1215" type="curve" smooth="yes"/>
      <point x="452" y="1215"/>
      <point x="239" y="1005"/>
      <point x="239" y="725" type="curve" smooth="yes"/>
      <point x="239" y="436"/>
      <point x="458" y="234"/>
    </contour>
  </outline>
</glyph>
<glyph name="ordmasculine" format="1">
  <advance width="897"/>
  <unicode hex="00BA"/>
  <outline>
    <contour>
      <point x="788" y="1092" type="curve" smooth="yes"/>
      <point x="788" y="1317"/>
      <point x="676" y="1477"/>
      <point x="452" y="1477" type="curve" smooth="yes"/>
      <point x="234" y="1477"/>
      <point x="116" y="1314"/>
      <point x="116" y="1092" type="curve" smooth="yes"/>
      <point x="116" y="875"/>
      <point x="234" y="713"/>
      <point x="452" y="713" type="curve" smooth="yes"/>
      <point x="658" y="713"/>
      <point x="788" y="878"/>
    </contour>
    <contour>
      <point x="253" y="1092" type="curve" smooth="yes"/>
      <point x="253" y="1265"/>
      <point x="320" y="1370"/>
      <point x="452" y="1370" type="curve" smooth="yes"/>
      <point x="588" y="1370"/>
      <point x="658" y="1263"/>
      <point x="658" y="1089" type="curve" smooth="yes"/>
      <point x="658" y="920"/>
      <point x="592" y="820"/>
      <point x="452" y="820" type="curve" smooth="yes"/>
      <point x="319" y="820"/>
      <point x="253" y="921"/>
    </contour>
  </outline>
</glyph>
<glyph name="onehalf" format="1">
  <advance width="1509"/>
  <unicode hex="00BD"/>
  <outline>
    <contour>
      <point x="-27" y="593.0" type="line"/>
      <point x="398" y="593.0" type="line"/>
      <point x="398" y="705.0" type="line"/>
      <point x="259" y="705.0" type="line"/>
      <point x="259" y="1476.0" type="line"/>
      <point x="149" y="1476.0" type="line"/>
      <point x="107" y="1437.0"/>
      <point x="-6" y="1386.0"/>
      <point x="-36" y="1373.0" type="curve"/>
      <point x="-36" y="1259.0" type="line"/>
      <point x="-8" y="1272.0"/>
      <point x="84" y="1309.0"/>
      <point x="121" y="1333.0" type="curve"/>
      <point x="121" y="705.0" type="line"/>
      <point x="-27" y="705.0" type="line"/>
    </contour>
    <contour>
      <point x="212" y="0.0" type="line"/>
      <point x="344" y="0.0" type="line"/>
      <point x="1251" y="1476.0" type="line"/>
      <point x="1120" y="1476.0" type="line"/>
    </contour>
    <contour>
      <point x="979" y="0" type="line"/>
      <point x="1500" y="0" type="line"/>
      <point x="1506" y="114" type="line"/>
      <point x="1156" y="114" type="line"/>
      <point x="1327" y="281" type="line" smooth="yes"/>
      <point x="1451" y="402"/>
      <point x="1514" y="474"/>
      <point x="1514" y="615" type="curve" smooth="yes"/>
      <point x="1514" y="782"/>
      <point x="1383" y="871"/>
      <point x="1231" y="871" type="curve" smooth="yes"/>
      <point x="1116" y="871"/>
      <point x="991" y="812"/>
      <point x="938" y="716" type="curve"/>
      <point x="1010" y="637" type="line"/>
      <point x="1068" y="716"/>
      <point x="1151" y="751"/>
      <point x="1229" y="751" type="curve" smooth="yes"/>
      <point x="1311" y="751"/>
      <point x="1382" y="705"/>
      <point x="1382" y="607" type="curve" smooth="yes"/>
      <point x="1382" y="536"/>
      <point x="1342" y="474"/>
      <point x="1227" y="358" type="curve" smooth="yes"/>
      <point x="979" y="110" type="line"/>
    </contour>
  </outline>
</glyph>
<glyph name="ae" format="1">
  <advance width="1704"/>
  <unicode hex="00E6"/>
  <outline>
    <contour>
      <point x="771" y="365" type="line" smooth="yes"/>
      <point x="767" y="193"/>
      <point x="640" y="102"/>
      <point x="467" y="102" type="curve" smooth="yes"/>
      <point x="453" y="102"/>
      <point x="439" y="103"/>
      <point x="424" y="104" type="curve" smooth="yes"/>
      <point x="331" y="112"/>
      <point x="253" y="167"/>
      <point x="253" y="292" type="curve" smooth="yes"/>
      <point x="253" y="415"/>
      <point x="295" y="513"/>
      <point x="525" y="513" type="curve" smooth="yes"/>
      <point x="580" y="513"/>
      <point x="743" y="505"/>
      <point x="820" y="492" type="curve"/>
      <point x="775" y="546" type="line"/>
    </contour>
    <contour>
      <point x="775" y="580" type="line"/>
      <point x="819" y="607" type="line"/>
      <point x="733" y="620"/>
      <point x="570" y="626"/>
      <point x="509" y="626" type="curve" smooth="yes"/>
      <point x="190" y="626"/>
      <point x="95" y="482"/>
      <point x="95" y="293" type="curve" smooth="yes"/>
      <point x="95" y="92"/>
      <point x="225" y="-11"/>
      <point x="416" y="-20" type="curve" smooth="yes"/>
      <point x="425" y="-20"/>
      <point x="434" y="-21"/>
      <point x="443" y="-21" type="curve" smooth="yes"/>
      <point x="648" y="-21"/>
      <point x="826" y="84"/>
      <point x="884" y="277" type="curve" smooth="yes"/>
      <point x="912" y="370" type="line"/>
      <point x="922" y="678" type="line" smooth="yes"/>
      <point x="922" y="687"/>
      <point x="922" y="697"/>
      <point x="922" y="706" type="curve" smooth="yes"/>
      <point x="922" y="976"/>
      <point x="792" y="1106"/>
      <point x="531" y="1106" type="curve" smooth="yes"/>
      <point x="324" y="1106"/>
      <point x="189" y="1015"/>
      <point x="133" y="869" type="curve"/>
      <point x="241" y="804" type="line"/>
      <point x="251" y="805" type="line"/>
      <point x="314" y="946"/>
      <point x="407" y="980"/>
      <point x="541" y="980" type="curve" smooth="yes"/>
      <point x="704" y="980"/>
      <point x="775" y="912"/>
      <point x="775" y="722" type="curve" smooth="yes"/>
    </contour>
    <contour>
      <point x="930" y="564" type="line"/>
      <point x="937" y="845"/>
      <point x="1045" y="980"/>
      <point x="1246" y="980" type="curve"/>
      <point x="1381" y="980"/>
      <point x="1450" y="895"/>
      <point x="1456" y="805" type="curve" smooth="yes"/>
      <point x="1463" y="705"/>
      <point x="1457" y="593"/>
      <point x="1187" y="593" type="curve" smooth="yes"/>
      <point x="1128" y="593"/>
      <point x="959" y="600"/>
      <point x="885" y="610" type="curve"/>
    </contour>
    <contour>
      <point x="1409" y="-20"/>
      <point x="1534" y="24"/>
      <point x="1624" y="84" type="curve"/>
      <point x="1585" y="197" type="line"/>
      <point x="1573" y="197" type="line"/>
      <point x="1483" y="146"/>
      <point x="1406" y="106"/>
      <point x="1281" y="106" type="curve" smooth="yes"/>
      <point x="1071" y="106"/>
      <point x="929" y="220"/>
      <point x="928" y="546" type="curve"/>
      <point x="889" y="490" type="line"/>
      <point x="963" y="482"/>
      <point x="1133" y="475"/>
      <point x="1195" y="475" type="curve" smooth="yes"/>
      <point x="1570" y="475"/>
      <point x="1617" y="652"/>
      <point x="1613" y="797" type="curve" smooth="yes"/>
      <point x="1608" y="968"/>
      <point x="1473" y="1106"/>
      <point x="1243" y="1106" type="curve"/>
      <point x="975" y="1106"/>
      <point x="782" y="907"/>
      <point x="782" y="546" type="curve" smooth="yes"/>
      <point x="782" y="198"/>
      <point x="973" y="-20"/>
      <point x="1260" y="-20" type="curve" smooth="yes"/>
    </contour>
    <contour>
      <point x="922" y="1085" type="move" name="top"/>
    </contour>
  </outline>
</glyph>
<glyph name="uni02BC" format="1">
  <advance width="612"/>
  <unicode hex="02BC"/>
  <outline>
    <contour>
      <point x="173" y="1058" type="line"/>
      <point x="297" y="1058" type="line"/>
      <point x="465" y="1516" type="line"/>
      <point x="285" y="1516" type="line"/>
    </contour>
    <contour>
      <point x="223" y="945.25" type="move" name="_top"/>
    </contour>
    <contour>
      <point x="235" y="945.25" type="move" name="_mid"/>
    </contour>
    <contour>
      <point x="383" y="1598.175" type="move" name="_bot"/>
    </contour>
  </outline>
</glyph>
<glyph name="acutecomb" format="1">
  <advance width="652"/>
  <unicode hex="0301"/>
  <outline>
    <contour>
      <point x="167" y="1058" type="line"/>
      <point x="264" y="1058" type="line"/>
      <point x="556" y="1470" type="line"/>
      <point x="350" y="1470" type="line"/>
    </contour>
    <contour>
      <point x="223" y="1006.75" type="move" name="_top"/>
    </contour>
  </outline>
</glyph>
<glyph name="Omega" format="1">
  <advance width="1509"/>
  <unicode hex="03A9"/>
  <outline>
    <contour>
      <point x="744" y="-20" type="curve" smooth="yes"/>
      <point x="309" y="-20"/>
      <point x="52" y="272"/>
      <point x="52" y="731" type="curve" smooth="yes"/>
      <point x="52" y="1200"/>
      <point x="315" y="1492"/>
      <point x="744" y="1492" type="curve" smooth="yes"/>
      <point x="1168" y="1492"/>
      <point x="1435" y="1198"/>
      <point x="1435" y="730" type="curve" smooth="yes"/>
      <point x="1435" y="275"/>
      <point x="1175" y="-20"/>
    </contour>
    <contour>
      <point x="744" y="158" type="curve" smooth="yes"/>
      <point x="1054" y="158"/>
      <point x="1213" y="398"/>
      <point x="1213" y="730" type="curve" smooth="yes"/>
      <point x="1213" y="1074"/>
      <point x="1048" y="1311"/>
      <point x="744" y="1311" type="curve" smooth="yes"/>
      <point x="440" y="1311"/>
      <point x="273" y="1075"/>
      <point x="273" y="730" type="curve" smooth="yes"/>
      <point x="273" y="398"/>
      <point x="434" y="158"/>
    </contour>
  </outline>
</glyph>
<glyph name="afii10018" format="1">
  <advance width="1183"/>
  <unicode hex="0411"/>
  <outline>
    <contour>
      <point x="116" y="0" type="line"/>
      <point x="617" y="0" type="line" smooth="yes"/>
      <point x="981" y="0"/>
      <point x="1104" y="174"/>
      <point x="1104" y="426" type="curve" smooth="yes"/>
      <point x="1104" y="672"/>
      <point x="984" y="844"/>
      <point x="614" y="844" type="curve" smooth="yes"/>
      <point x="292" y="844" type="line"/>
      <point x="292" y="1360" type="line"/>
      <point x="961" y="1360" type="line"/>
      <point x="961" y="1496" type="line"/>
      <point x="116" y="1496" type="line"/>
    </contour>
    <contour>
      <point x="292" y="706" type="line"/>
      <point x="608" y="706" type="line" smooth="yes"/>
      <point x="846" y="706"/>
      <point x="928" y="630"/>
      <point x="928" y="423" type="curve" smooth="yes"/>
      <point x="928" y="218"/>
      <point x="832" y="137"/>
      <point x="610" y="137" type="curve" smooth="yes"/>
      <point x="292" y="137" type="line"/>
    </contour>
  </outline>
</glyph>
<glyph name="afii10029" format="1">
  <advance width="1387"/>
  <unicode hex="041B"/>
  <outline>
    <contour>
      <point x="-112" y="-23" type="line"/>
      <point x="-35" y="-23" type="line" smooth="yes"/>
      <point x="275" y="-23"/>
      <point x="363" y="130"/>
      <point x="363" y="437" type="curve" smooth="yes"/>
      <point x="363" y="1339" type="line"/>
      <point x="1082" y="1339" type="line"/>
      <point x="1082" y="0" type="line"/>
      <point x="1257" y="0" type="line"/>
      <point x="1258" y="1470" type="line"/>
      <point x="187" y="1471" type="line"/>
      <point x="187" y="412" type="line" smooth="yes"/>
      <point x="187" y="214"/>
      <point x="149" y="123"/>
      <point x="-47" y="123" type="curve" smooth="yes"/>
      <point x="-112" y="123" type="line"/>
    </contour>
  </outline>
</glyph>
<glyph name="afii10043" format="1">
  <advance width="1550"/>
  <unicode hex="0429"/>
  <outline>
    <contour>
      <point x="1369" y="-288" type="line"/>
      <point x="1520" y="-288" type="line"/>
      <point x="1520" y="166" type="line"/>
      <point x="1420" y="166" type="line"/>
      <point x="1420" y="1504" type="line"/>
      <point x="1269" y="1504" type="line"/>
      <point x="1269" y="151" type="line"/>
      <point x="845" y="151" type="line"/>
      <point x="845" y="1504" type="line"/>
      <point x="693" y="1504" type="line"/>
      <point x="693" y="151" type="line"/>
      <point x="278" y="151" type="line"/>
      <point x="278" y="1504" type="line"/>
      <point x="128" y="1504" type="line"/>
      <point x="128" y="7" type="line"/>
      <point x="1370" y="7" type="line"/>
    </contour>
  </outline>
</glyph>
<glyph name="afii10044" format="1">
  <advance width="1183"/>
  <unicode hex="042A"/>
  <outline>
    <contour>
      <point x="164" y="0" type="line"/>
      <point x="637" y="0" type="line" smooth="yes"/>
      <point x="1001" y="0"/>
      <point x="1124" y="174"/>
      <point x="1124" y="426" type="curve" smooth="yes"/>
      <point x="1124" y="672"/>
      <point x="1005" y="844"/>
      <point x="635" y="844" type="curve" smooth="yes"/>
      <point x="340" y="844" type="line"/>
      <point x="341" y="1471" type="line"/>
      <point x="-81" y="1471" type="line"/>
      <point x="-81" y="1335" type="line"/>
      <point x="164" y="1336" type="line"/>
    </contour>
    <contour>
      <point x="340" y="707" type="line"/>
      <point x="629" y="707" type="line" smooth="yes"/>
      <point x="867" y="707"/>
      <point x="948" y="630"/>
      <point x="948" y="424" type="curve" smooth="yes"/>
      <point x="948" y="219"/>
      <point x="852" y="137"/>
      <point x="630" y="137" type="curve" smooth="yes"/>
      <point x="340" y="137" type="line"/>
    </contour>
  </outline>
</glyph>
<glyph name="afii10074" format="1">
  <advance width="1142"/>
  <unicode hex="0438"/>
  <outline>
    <contour>
      <point x="160" y="0" type="line"/>
      <point x="160" y="1081" type="line"/>
      <point x="260" y="1081" type="line"/>
      <point x="260" y="161" type="line"/>
      <point x="863" y="991" type="line"/>
      <point x="863" y="1081" type="line"/>
      <point x="965" y="1081" type="line"/>
      <point x="965" y="0" type="line"/>
      <point x="863" y="0" type="line"/>
      <point x="863" y="832" type="line"/>
      <point x="259" y="0" type="line"/>
    </contour>
  </outline>
</glyph>
<glyph name="afii10090" format="1">
  <advance width="1305"/>
  <unicode hex="0448"/>
  <outline>
    <contour>
      <point x="154" y="0" type="line"/>
      <point x="154" y="1081" type="line"/>
      <point x="277" y="1081" type="line"/>
      <point x="277" y="78" type="line"/>
      <point x="600" y="78" type="line"/>
      <point x="600" y="1081" type="line"/>
      <point x="705" y="1081" type="line"/>
      <point x="705" y="78" type="line"/>
      <point x="1027" y="78" type="line"/>
      <point x="1027" y="1081" type="line"/>
      <point x="1152" y="1081" type="line"/>
      <point x="1152" y="0" type="line"/>
    </contour>
  </outline>
</glyph>
<glyph name="afii10096" format="1">
  <advance width="1428"/>
  <unicode hex="044E"/>
  <outline>
    <contour>
      <point x="903" y="66" type="curve" smooth="yes"/>
      <point x="1157" y="66"/>
      <point x="1223" y="300"/>
      <point x="1223" y="539" type="curve" smooth="yes"/>
      <point x="1223" y="785"/>
      <point x="1167" y="1021"/>
      <point x="898" y="1021" type="curve" smooth="yes"/>
      <point x="640" y="1021"/>
      <point x="565" y="772"/>
      <point x="565" y="534" type="curve" smooth="yes"/>
      <point x="565" y="301"/>
      <point x="643" y="66"/>
    </contour>
    <contour>
      <point x="898" y="-28" type="curve" smooth="yes"/>
      <point x="588" y="-28"/>
      <point x="464" y="196"/>
      <point x="459" y="496" type="curve"/>
      <point x="248" y="496" type="line"/>
      <point x="248" y="1" type="line"/>
      <point x="160" y="1" type="line"/>
      <point x="160" y="1082" type="line"/>
      <point x="248" y="1082" type="line"/>
      <point x="248" y="582" type="line"/>
      <point x="459" y="582" type="line"/>
      <point x="465" y="877"/>
      <point x="591" y="1115"/>
      <point x="903" y="1115" type="curve" smooth="yes"/>
      <point x="1241" y="1115"/>
      <point x="1326" y="856"/>
      <point x="1326" y="542" type="curve" smooth="yes"/>
      <point x="1326" y="243"/>
      <point x="1229" y="-28"/>
    </contour>
  </outline>
</glyph>
<glyph name="afii10107" format="1">
  <advance width="1550"/>
  <unicode hex="045A"/>
  <outline>
    <contour>
      <point x="934" y="123" type="line"/>
      <point x="934" y="520" type="line"/>
      <point x="1164" y="520" type="line" smooth="yes"/>
      <point x="1314" y="520"/>
      <point x="1364" y="427"/>
      <point x="1364" y="323" type="curve" smooth="yes"/>
      <point x="1364" y="218"/>
      <point x="1312" y="123"/>
      <point x="1164" y="123" type="curve" smooth="yes"/>
    </contour>
    <contour>
      <point x="122" y="0" type="line"/>
      <point x="285" y="0" type="line"/>
      <point x="285" y="511" type="line"/>
      <point x="773" y="511" type="line"/>
      <point x="773" y="0" type="line"/>
      <point x="1168" y="0" type="line" smooth="yes"/>
      <point x="1397" y="0"/>
      <point x="1502" y="151"/>
      <point x="1502" y="320" type="curve" smooth="yes"/>
      <point x="1502" y="498"/>
      <point x="1405" y="639"/>
      <point x="1169" y="639" type="curve" smooth="yes"/>
      <point x="934" y="639" type="line"/>
      <point x="934" y="1084" type="line"/>
      <point x="773" y="1084" type="line"/>
      <point x="773" y="639" type="line"/>
      <point x="285" y="639" type="line"/>
      <point x="285" y="1084" type="line"/>
      <point x="122" y="1084" type="line"/>
    </contour>
  </outline>
</glyph>
<glyph name="quotedblright" format="1">
  <advance width="816"/>
  <unicode hex="201D"/>
  <outline>
    <contour>
      <point x="471" y="948" type="line"/>
      <point x="586" y="948" type="line"/>
      <point x="768" y="1473" type="line"/>
      <point x="574" y="1473" type="line"/>
    </contour>
    <contour>
      <point x="148" y="948" type="line"/>
      <point x="263" y="948" type="line"/>
      <point x="445" y="1473" type="line"/>
      <point x="251" y="1473" type="line"/>
    </contour>
  </outline>
</glyph>
<glyph name="Euro" format="1">
  <advance width="1061"/>
  <unicode hex="20AC"/>
  <outline>
    <contour>
      <point x="941" y="538" type="line"/>
      <point x="949" y="649" type="line"/>
      <point x="314" y="649" type="line"/>
      <point x="314" y="829" type="line"/>
      <point x="949" y="829" type="line"/>
      <point x="957" y="937" type="line"/>
      <point x="97" y="937" type="line"/>
      <point x="91" y="829" type="line"/>
      <point x="228" y="829" type="line"/>
      <point x="228" y="649" type="line"/>
      <point x="92" y="649" type="line"/>
      <point x="84" y="538" type="line"/>
    </contour>
    <component base="C"/>
  </outline>
</glyph>
<glyph name="uni2206" format="1">
  <advance width="1142"/>
  <unicode hex="2206"/>
  <outline>
    <contour>
      <point x="197" y="173" type="line"/>
      <point x="954" y="173" type="line"/>
      <point x="605" y="1192" type="line"/>
      <point x="571" y="1310" type="line"/>
      <point x="539" y="1192" type="line"/>
    </contour>
    <contour>
      <point x="1" y="0" type="line"/>
      <point x="1" y="85" type="line"/>
      <point x="483" y="1537" type="line"/>
      <point x="669" y="1537" type="line"/>
      <point x="1150" y="85" type="line"/>
      <point x="1150" y="0" type="line"/>
    </contour>
  </outline>
</glyph>
<glyph name="greaterequal" format="1">
  <advance width="1061"/>
  <unicode hex="2265"/>
  <outline>
    <contour>
      <point x="65" y="8" type="line"/>
      <point x="999" y="8" type="line"/>
      <point x="999" y="134" type="line"/>
      <point x="65" y="133" type="line"/>
    </contour>
    <contour>
      <point x="95" y="236" type="line"/>
      <point x="980" y="718" type="line"/>
      <point x="980" y="798" type="line"/>
      <point x="99" y="1309" type="line"/>
      <point x="99" y="1169" type="line"/>
      <point x="805" y="758" type="line"/>
      <point x="95" y="373" type="line"/>
    </contour>
  </outline>
</glyph>
<glyph name="onesuperior" format="1">
  <advance width="734"/>
  <outline>
    <contour>
      <point x="158" y="572" type="line"/>
      <point x="589" y="572" type="line"/>
      <point x="589" y="684" type="line"/>
      <point x="450" y="684" type="line"/>
      <point x="450" y="1456" type="line"/>
      <point x="340" y="1456" type="line"/>
      <point x="298" y="1416"/>
      <point x="184" y="1365"/>
      <point x="148" y="1352" type="curve"/>
      <point x="148" y="1238" type="line"/>
      <point x="182" y="1251"/>
      <point x="275" y="1288"/>
      <point x="312" y="1312" type="curve"/>
      <point x="312" y="684" type="line"/>
      <point x="158" y="684" type="line"/>
    </contour>
  </outline>
</glyph>
